:FULLY-SPECIFIED
:FORCE-ALL-JOINTS-BE-3DOF
:DEGREES
15
root 0.245765 17.1726 -28.7066 4.38788 -1.70965 -0.397204
lfemur -14.1012 3.33833 -20.7525
ltibia 65.9458 -0 0
lfoot -6.77546 -1.18905 -0.349287
ltoes -10.4396 0 0
rfemur -29.062 -0.760661 21.7448
rtibia 85.3935 -0 0
rfoot 2.85717 -5.65651 0.065433
rtoes 2.60095 -0 0
lowerback 18.9757 -1.08974 -1.9394
upperback 1.87406 -1.91276 -0.672549
thorax -8.49423 -0.852706 0.869695
lowerneck -2.43788 0.933637 -0.565176
upperneck -14.1742 1.3967 1.3455
head -4.02006 0.65868 0.523361
lclavicle -1.46107e-14 1.03368e-14 0
lhumerus -23.5258 -18.3338 88.3027
lradius 110.473 -0 0
lwrist 29.7639 0 0
lhand -38.0118 10.3356 -0.0269733
lfingers 7.12502 -0 0
lthumb -11.0505 40.0215 -0.0254291
rclavicle -1.46107e-14 1.03368e-14 0
rhumerus -46.4466 9.88592 -88.4937
rradius 88.0322 -0 0
rwrist -1.48904 0 0
rhand -47.4192 39.5399 -0.0182421
rfingers 7.12502 -0 0
rthumb -20.1093 10.5726 -0.0208708
16
root 0.256764 17.177 -28.1694 4.37326 -2.00162 -0.576301
lfemur -14.5843 3.73359 -20.2689
ltibia 67.7141 -0 0
lfoot -5.94047 -1.31643 -0.360454
ltoes -10.384 0 0
rfemur -28.5436 -0.552575 22.1175
rtibia 83.7619 -0 0
rfoot 2.14204 -5.68434 0.0675209
rtoes 2.17772 -0 0
lowerback 18.9559 -1.07959 -1.71582
upperback 1.88695 -1.84316 -0.565063
thorax -8.472 -0.825703 0.84079
lowerneck -2.39524 1.00933 -0.51063
upperneck -14.2656 1.47746 1.1474
head -4.04508 0.703611 0.447523
lclavicle -1.46107e-14 1.03368e-14 0
lhumerus -24.4731 -18.124 88.6673
lradius 110.231 -0 0
lwrist 29.9256 0 0
lhand -38.0704 10.4751 -0.0278298
lfingers 7.12502 -0 0
lthumb -11.107 40.1579 -0.0262365
rclavicle -1.46107e-14 1.03368e-14 0
rhumerus -45.8615 9.99292 -88.4989
rradius 88.5289 -0 0
rwrist -1.53878 0 0
rhand -47.3153 39.4867 -0.0188213
rfingers 7.12502 -0 0
rthumb -20.0093 10.5092 -0.0215334
17
root 0.267763 17.1813 -27.6321 4.35955 -2.29364 -0.755359
lfemur -15.0643 4.1329 -19.7884
ltibia 69.4824 -0 0
lfoot -5.10545 -1.44396 -0.369764
ltoes -10.3283 0 0
rfemur -28.0239 -0.347873 22.492
rtibia 82.1303 -0 0
rfoot 1.42692 -5.71219 0.0692612
rtoes 1.75448 -0 0
lowerback 18.9362 -1.06936 -1.49225
upperback 1.89998 -1.77358 -0.457566
thorax -8.44978 -0.798689 0.811896
lowerneck -2.35252 1.08498 -0.456027
upperneck -14.3574 1.55791 0.949155
head -4.07016 0.74851 0.371663
lclavicle -1.46107e-14 1.03368e-14 0
lhumerus -25.4178 -17.9085 89.0277
lradius 109.988 -0 0
lwrist 30.0872 0 0
lhand -38.129 10.6146 -0.0285435
lfingers 7.12502 -0 0
lthumb -11.1636 40.2943 -0.0269094
rclavicle -1.46107e-14 1.03368e-14 0
rhumerus -45.2761 10.1 -88.5031
rradius 89.0256 -0 0
rwrist -1.58852 0 0
rhand -47.2113 39.4335 -0.019304
rfingers 7.12502 -0 0
rthumb -19.9094 10.4459 -0.0220856
18
root 0.278762 17.1857 -27.0949 4.34674 -2.5857 -0.934386
lfemur -15.5411 4.53619 -19.3111
ltibia 71.2507 -0 0
lfoot -4.27042 -1.57161 -0.377214
ltoes -10.2727 0 0
rfemur -27.5029 -0.146582 22.8684
rtibia 80.4987 -0 0
rfoot 0.711791 -5.74006 0.0706538
rtoes 1.33124 -0 0
lowerback 18.9164 -1.05905 -1.26869
upperback 1.91313 -1.70403 -0.350057
thorax -8.42758 -0.771664 0.783012
lowerneck -2.30973 1.16059 -0.401365
upperneck -14.4494 1.63804 0.750777
head -4.09529 0.793375 0.295784
lclavicle -1.46107e-14 1.03368e-14 0
lhumerus -26.3599 -17.6874 89.3839
lradius 109.746 -0 0
lwrist 30.2488 0 0
lhand -38.1877 10.7541 -0.0291145
lfingers 7.12502 -0 0
lthumb -11.2201 40.4307 -0.0274477
rclavicle -1.46107e-14 1.03368e-14 0
rhumerus -44.6906 10.2071 -88.5061
rradius 89.5223 -0 0
rwrist -1.63826 0 0
rhand -47.1074 39.3803 -0.0196901
rfingers 7.12502 -0 0
rthumb -19.8095 10.3826 -0.0225274
19
root 0.289761 17.1901 -26.5576 4.33485 -2.8778 -1.11339
lfemur -16.0148 4.94342 -18.8368
ltibia 73.019 -0 0
lfoot -3.43537 -1.69936 -0.382803
ltoes -10.2171 0 0
rfemur -26.9806 0.0512747 23.2466
rtibia 78.8671 -0 0
rfoot -0.00333382 -5.76795 0.0716984
rtoes 0.908001 -0 0
lowerback 18.8968 -1.04866 -1.04512
upperback 1.92641 -1.6345 -0.242536
thorax -8.40539 -0.744628 0.754139
lowerneck -2.26687 1.23616 -0.346646
upperneck -14.5416 1.71785 0.552263
head -4.12049 0.838207 0.219884
lclavicle -1.46107e-14 1.03368e-14 0
lhumerus -27.2994 -17.4608 89.7358
lradius 109.504 -0 0
lwrist 30.4105 0 0
lhand -38.2463 10.8936 -0.0295428
lfingers 7.12502 -0 0
lthumb -11.2767 40.5671 -0.0278515
rclavicle -1.46107e-14 1.03368e-14 0
rhumerus -44.1048 10.3142 -88.508
rradius 90.019 -0 0
rwrist -1.68801 0 0
rhand -47.0034 39.3271 -0.0199797
rfingers 7.12502 -0 0
rthumb -19.7095 10.3193 -0.0228588
20
root 0.30076 17.1945 -26.0204 4.32387 -3.16993 -1.29238
lfemur -16.4855 5.35453 -18.3657
ltibia 74.7873 -0 0
lfoot -2.6003 -1.82718 -0.38653
ltoes -10.1614 0 0
rfemur -26.4569 0.245671 23.6266
rtibia 77.2355 -0 0
rfoot -0.718459 -5.79584 0.0723949
rtoes 0.484763 -0 0
lowerback 18.8771 -1.0382 -0.821565
upperback 1.93982 -1.56499 -0.135002
thorax -8.38322 -0.71758 0.725277
lowerneck -2.22393 1.31169 -0.291868
upperneck -14.6342 1.79733 0.353611
head -4.14574 0.883005 0.143963
lclavicle -1.46107e-14 1.03368e-14 0
lhumerus -28.2363 -17.2287 90.0833
lradius 109.261 -0 0
lwrist 30.5721 0 0
lhand -38.3049 11.0331 -0.0298283
lfingers 7.12502 -0 0
lthumb -11.3332 40.7034 -0.0281206
rclavicle -1.46107e-14 1.03368e-14 0
rhumerus -43.5189 10.4213 -88.5088
rradius 90.5157 -0 0
rwrist -1.73775 0 0
rhand -46.8995 39.2739 -0.0201728
rfingers 7.12502 -0 0
rthumb -19.6096 10.256 -0.0230796
21
root 0.311759 17.1989 -25.4831 4.3138 -3.4621 -1.47137
lfemur -16.953 5.76947 -17.8976
ltibia 76.5556 -0 0
lfoot -1.76523 -1.95503 -0.388393
ltoes -10.1058 0 0
rfemur -25.932 0.436581 24.0084
rtibia 75.6039 -0 0
rfoot -1.43359 -5.82375 0.0727432
rtoes 0.0615239 -0 0
lowerback 18.8575 -1.02766 -0.598011
upperback 1.95337 -1.49552 -0.0274556
thorax -8.36106 -0.690522 0.696425
lowerneck -2.18092 1.38718 -0.237032
upperneck -14.7271 1.8765 0.154823
head -4.17105 0.92777 0.0680218
lclavicle -1.46107e-14 1.03368e-14 0
lhumerus -29.1705 -16.9912 90.4264
lradius 109.019 -0 0
lwrist 30.7337 0 0
lhand -38.3635 11.1726 -0.029971
lfingers 7.12502 -0 0
lthumb -11.3897 40.8398 -0.0282552
rclavicle -1.46107e-14 1.03368e-14 0
rhumerus -42.9328 10.5284 -88.5085
rradius 91.0124 -0 0
rwrist -1.78749 0 0
rhand -46.7956 39.2207 -0.0202693
rfingers 7.12502 -0 0
rthumb -19.5097 10.1926 -0.0231901
22
root 0.322758 17.2032 -24.9459 4.30464 -3.7543 -1.65037
lfemur -17.4175 6.18819 -17.4326
ltibia 78.324 -0 0
lfoot -0.930166 -2.0829 -0.388393
ltoes -10.0502 0 0
rfemur -25.4058 0.623983 24.3919
rtibia 73.9723 -0 0
rfoot -2.14871 -5.85165 0.0727432
rtoes -0.361714 0 0
lowerback 18.838 -1.01704 -0.374462
upperback 1.96704 -1.42607 0.0801039
thorax -8.33891 -0.663452 0.667584
lowerneck -2.13784 1.46263 -0.182137
upperneck -14.8202 1.95535 -0.0441027
head -4.19643 0.972502 -0.00794029
lclavicle -1.46107e-14 1.03368e-14 0
lhumerus -30.102 -16.7485 90.765
lradius 108.777 -0 0
lwrist 30.8954 0 0
lhand -38.4222 11.3121 -0.029971
lfingers 7.12502 -0 0
lthumb -11.4463 40.9762 -0.0282552
rclavicle -1.46107e-14 1.03368e-14 0
rhumerus -42.3464 10.6356 -88.5071
rradius 91.509 -0 0
rwrist -1.83723 0 0
rhand -46.6916 39.1674 -0.0202693
rfingers 7.12502 -0 0
rthumb -19.4097 10.1293 -0.0231901
23
root 0.333757 17.2076 -24.4086 4.29639 -4.04652 -1.82938
lfemur -17.8789 6.61062 -16.9706
ltibia 80.0923 -0 0
lfoot -0.0950962 -2.21076 -0.38653
ltoes -9.99454 0 0
rfemur -24.8783 0.807849 24.7771
rtibia 72.3407 -0 0
rfoot -2.86384 -5.87956 0.0723949
rtoes -0.784953 0 0
lowerback 18.8184 -1.00635 -0.150917
upperback 1.98084 -1.35664 0.187677
thorax -8.31678 -0.636371 0.638753
lowerneck -2.09468 1.53803 -0.127184
upperneck -14.9136 2.03387 -0.243166
head -4.22186 1.0172 -0.0839233
lclavicle -1.46107e-14 1.03368e-14 0
lhumerus -31.0307 -16.5005 91.0989
lradius 108.535 -0 0
lwrist 31.057 0 0
lhand -38.4808 11.4517 -0.0298283
lfingers 7.12502 -0 0
lthumb -11.5028 41.1126 -0.0281206
rclavicle -1.46107e-14 1.03368e-14 0
rhumerus -41.7599 10.7427 -88.5046
rradius 92.0057 -0 0
rwrist -1.88697 0 0
rhand -46.5877 39.1142 -0.0201728
rfingers 7.12502 -0 0
rthumb -19.3098 10.066 -0.0230796
24
root 0.344756 17.212 -23.8714 4.28906 -4.33877 -2.00841
lfemur -18.3373 7.03673 -16.5117
ltibia 81.8606 -0 0
lfoot 0.739966 -2.33858 -0.382803
ltoes -9.93891 0 0
rfemur -24.3496 0.988158 25.164
rtibia 70.7091 -0 0
rfoot -3.57897 -5.90745 0.0716984
rtoes -1.20819 0 0
lowerback 18.799 -0.99558 0.0726239
upperback 1.99477 -1.28724 0.295263
thorax -8.29466 -0.609279 0.609934
lowerneck -2.05145 1.6134 -0.0721725
upperneck -15.0073 2.11206 -0.442367
head -4.24735 1.06186 -0.159927
lclavicle -1.46107e-14 1.03368e-14 0
lhumerus -31.9568 -16.2473 91.4282
lradius 108.292 -0 0
lwrist 31.2186 0 0
lhand -38.5394 11.5912 -0.0295428
lfingers 7.12502 -0 0
lthumb -11.5593 41.2489 -0.0278515
rclavicle -1.46107e-14 1.03368e-14 0
rhumerus -41.1731 10.8497 -88.501
rradius 92.5024 -0 0
rwrist -1.93671 0 0
rhand -46.4838 39.061 -0.0199797
rfingers 7.12502 -0 0
rthumb -19.2099 10.0027 -0.0228588
